# xmcd CD database file
#
# Track frame offsets:
#	150
#	18707
#	44679
#	75291
#	99206
#	143498
#	178916
#
# Disc length: 2657 seconds
#
# Revision: 0
# Processed by: cddbd v1.4PL0 Copyright (c) Steve Scherf et al.
# Submitted via: CDex 1.40Beta9
#
DISCID=500a5f07
DTITLE=Luther Allison - South Side Safari
DYEAR=1999
DGENRE=Blues
TTITLE0=Strokes
TTITLE1=You're gonna need me
TTITLE2=You upset me baby
TTITLE3=Movin' on up
TTITLE4=The thrill is gone
TTITLE5=Cat Blues
TTITLE6=Messin' with the kid
EXTD=YEAR: 1999 ID3G: 0
EXTT0=
EXTT1=
EXTT2=
EXTT3=
EXTT4=
EXTT5=
EXTT6=
PLAYORDER=
